<svg width="533" height="510" viewBox="0 0 533 510" fill="none" xmlns="http://www.w3.org/2000/svg">
<path d="M72.4434 331.748C63.6862 307.965 59.1371 282.839 59 257.496C59 256.997 59 256.518 59 255.979C59 135.047 157.037 37 277.979 37C398.922 37 496.949 135.028 496.949 255.96C496.974 279.385 493.231 302.662 485.864 324.899C482.229 335.889 477.717 346.568 472.371 356.835C454.418 391.495 427.514 420.717 394.452 441.466C361.391 462.216 323.377 473.736 284.359 474.832C282.226 474.9 280.103 474.93 277.97 474.93C233.185 474.937 189.475 461.215 152.729 435.614C115.984 410.013 87.97 373.762 72.463 331.748" fill="#F9D84D"/>
<path d="M72.4434 331.748C63.6862 307.965 59.1371 282.839 59 257.496C59 256.997 59 256.518 59 255.979C59 135.047 157.037 37 277.979 37C398.922 37 496.949 135.028 496.949 255.96C496.974 279.385 493.231 302.662 485.864 324.899C482.229 335.889 477.717 346.568 472.371 356.835C454.418 391.495 427.514 420.717 394.452 441.466C361.391 462.216 323.377 473.736 284.359 474.832C282.226 474.9 280.103 474.93 277.97 474.93C233.185 474.937 189.475 461.215 152.729 435.614C115.984 410.013 87.97 373.762 72.463 331.748" stroke="white" stroke-width="12.1866" stroke-miterlimit="10"/>
<mask id="mask0_169_597" style="mask-type:alpha" maskUnits="userSpaceOnUse" x="64" y="41" width="428" height="428">
<path d="M82.9844 327.177C74.689 304.648 70.3799 280.846 70.25 256.838C70.25 256.366 70.25 255.912 70.25 255.402C70.25 140.843 163.116 47.9636 277.679 47.9636C392.242 47.9636 485.099 140.825 485.099 255.383C485.123 277.574 481.577 299.624 474.598 320.689C471.155 331.1 466.881 341.216 461.817 350.942C444.811 383.775 419.326 411.457 388.008 431.113C356.69 450.769 320.682 461.682 283.722 462.72C281.701 462.784 279.69 462.812 277.67 462.812C235.247 462.819 193.843 449.821 159.035 425.569C124.228 401.317 97.692 366.977 83.0029 327.177" fill="#F9D84D"/>
<path d="M82.9844 327.177C74.689 304.648 70.3799 280.846 70.25 256.838C70.25 256.366 70.25 255.912 70.25 255.402C70.25 140.843 163.116 47.9636 277.679 47.9636C392.242 47.9636 485.099 140.825 485.099 255.383C485.123 277.574 481.577 299.624 474.598 320.689C471.155 331.1 466.881 341.216 461.817 350.942C444.811 383.775 419.326 411.457 388.008 431.113C356.69 450.769 320.682 461.682 283.722 462.72C281.701 462.784 279.69 462.812 277.67 462.812C235.247 462.819 193.843 449.821 159.035 425.569C124.228 401.317 97.692 366.977 83.0029 327.177" stroke="#606060" stroke-width="12.1866" stroke-miterlimit="10"/>
</mask>
<g mask="url(#mask0_169_597)">
<path d="M272.909 284.076L204.703 39.6475" stroke="white" stroke-width="14.2177" stroke-linecap="round" stroke-linejoin="round" stroke-dasharray="19.52 29.28"/>
<path d="M351.053 239.384L170.89 59.2156" stroke="white" stroke-width="14.2177" stroke-linecap="round" stroke-linejoin="round" stroke-dasharray="19.52 29.28"/>
<path d="M472.789 193.259L132.3 86.1226" stroke="white" stroke-width="14.2177" stroke-linecap="round" stroke-linejoin="round" stroke-dasharray="19.52 29.28"/>
<path d="M424.926 64.5967L46.7684 163.818" stroke="white" stroke-width="14.2177" stroke-linecap="round" stroke-linejoin="round" stroke-dasharray="19.52 29.28"/>
<path d="M313.796 29.5891L95.0811 248.304" stroke="white" stroke-width="14.2177" stroke-linecap="round" stroke-linejoin="round" stroke-dasharray="19.52 29.28"/>
<path d="M252.645 23.5039L179.176 297.314" stroke="white" stroke-width="14.2177" stroke-linecap="round" stroke-linejoin="round" stroke-dasharray="19.52 29.28"/>
<path d="M228.753 165.373C255.771 165.373 277.674 143.252 277.674 115.963C277.674 88.675 255.771 66.5533 228.753 66.5533C201.735 66.5533 179.832 88.675 179.832 115.963C179.832 143.252 201.735 165.373 228.753 165.373Z" fill="#F9D84D"/>
<path d="M228.577 155.805C250.618 155.805 268.486 137.937 268.486 115.895C268.486 93.8536 250.618 75.9855 228.577 75.9855C206.535 75.9855 188.667 93.8536 188.667 115.895C188.667 137.937 206.535 155.805 228.577 155.805Z" fill="#F98F53"/>
<path d="M566.012 301.912C566.012 357.682 521.191 407.454 451.136 439.869C342.532 411.182 176.299 365.509 51.6583 331.03C77.557 316.755 108.123 297.519 131.438 283.391C139.403 278.577 162.542 281.091 170.272 276.14C187.531 265.114 203.362 250.085 219.261 238.432C228.155 231.916 234.025 224.304 240.326 216.907C244.935 211.526 248.046 207.827 256.959 204.413C266.274 200.842 279.835 200.421 290.49 200.646C298.904 200.802 304.569 200.91 311.506 201.849C317.951 202.77 324.232 204.598 330.165 207.279C342.943 212.974 351.69 220.977 362.756 227.64C371.786 233.119 380.044 239.088 388.429 244.949C397.489 237.796 409.407 228.315 415.492 223.482C425.208 215.821 432.752 207.358 452.105 210.058C461.018 211.301 468.669 214.549 475.587 218.042C490.263 225.507 504.489 233.188 519.39 240.546C525.496 243.569 541.659 249.655 554.613 253.862C562.062 268.787 565.963 285.231 566.012 301.912Z" fill="#FEF9F3"/>
<path d="M296.126 203.983C296.126 203.983 307.867 253.98 315.694 257.942C323.522 261.905 340.497 255.565 349.215 278.039C357.932 300.513 387.804 332.224 387.804 332.224" stroke="#606060" stroke-width="12.1866" stroke-miterlimit="10"/>
<g style="mix-blend-mode:multiply" opacity="0.53">
<path d="M439.571 213.708C439.571 213.708 455.118 218.541 461.214 232.083C463.583 236.968 466.355 241.648 469.501 246.074C471.556 249.127 473.561 252.786 476.193 255.369C478.512 257.658 480.733 259.283 482.396 262.218C483.708 254.616 484.246 246.906 484.794 239.205L485.527 228.746C485.679 227.515 485.679 226.269 485.527 225.038C484.627 219.931 479.716 219.295 475.743 217.504C473.62 216.526 469.53 213.59 467.104 213.669C465.998 213.737 439.571 213.708 439.571 213.708Z" fill="#E0D9D1"/>
</g>
<g style="mix-blend-mode:multiply" opacity="0.53">
<path d="M300.714 219.627C300.714 219.627 301.996 243.814 317.347 255.731C327.826 263.891 340.35 261.768 388.458 329.112C393.771 336.538 465.157 305.552 470.91 305.835C464.061 299.838 386.042 244.988 386.042 244.988C386.042 244.988 339.949 212.387 337.835 211.203C335.722 210.019 301.555 201.732 301.555 201.732L300.714 219.627Z" fill="#E0D9D1"/>
</g>
<path d="M566.012 301.912C566.012 357.682 521.191 407.454 451.136 439.869C342.532 411.182 176.299 365.509 51.6583 331.03C77.557 316.755 108.123 297.519 131.438 283.391C139.403 278.577 162.542 281.091 170.272 276.14C187.531 265.114 203.362 250.085 219.261 238.432C228.155 231.916 234.025 224.304 240.326 216.907C244.935 211.526 248.046 207.827 256.959 204.413C266.274 200.842 279.835 200.421 290.49 200.646C298.904 200.802 304.569 200.91 311.506 201.849C317.951 202.77 324.232 204.598 330.165 207.279C342.943 212.974 351.69 220.977 362.756 227.64C371.786 233.119 380.044 239.088 388.429 244.949C397.489 237.796 409.407 228.315 415.492 223.482C425.208 215.821 432.752 207.358 452.105 210.058C461.018 211.301 468.669 214.549 475.587 218.042C490.263 225.507 504.489 233.188 519.39 240.546C525.496 243.569 541.659 249.655 554.613 253.862C562.062 268.787 565.963 285.231 566.012 301.912Z" stroke="#606060" stroke-width="12.1866" stroke-miterlimit="10"/>
<path d="M392.178 240.439C402.569 250.36 413.185 260.095 424.094 269.527C429.541 274.23 435.085 278.832 440.727 283.332C446.373 287.794 452.116 292.138 458.192 296.052C451.636 292.989 445.306 289.418 439.064 285.73C432.821 282.041 426.677 278.157 420.591 274.194C408.452 266.249 396.499 257.998 384.732 249.44L392.178 240.439Z" fill="#606060"/>
<path d="M296.126 203.983C296.126 203.983 307.867 253.98 315.694 257.942C323.522 261.905 340.497 255.565 349.215 278.039C357.932 300.513 387.804 332.224 387.804 332.224" stroke="#606060" stroke-width="12.1866" stroke-miterlimit="10"/>
<path d="M146.035 318.722L143.171 328.813" stroke="white" stroke-width="14.2177" stroke-linecap="round" stroke-linejoin="round"/>
<path d="M508.378 285.958C506.371 296.035 503.672 305.973 500.299 315.71L349.374 392.51C334.169 385.681 318.395 378.559 302.37 371.291C369.64 343.83 450.486 310.575 508.378 285.958Z" fill="#88C67D"/>
<path d="M349.374 392.509L500.3 315.709C496.24 327.455 491.199 338.87 485.226 349.842L390.486 410.872C377.369 405.068 363.639 398.919 349.374 392.54V392.509Z" fill="#88C67D"/>
<path d="M390.486 410.873L485.225 349.864C469.539 378.693 447.772 404.096 421.3 424.468C411.55 420.201 401.253 415.652 390.486 410.873Z" fill="#88C67D"/>
<path d="M390.487 410.872C401.254 415.662 411.562 420.211 421.302 424.467C401.534 439.696 379.406 451.886 355.715 460.598L26.5692 279.903C24.5303 267.915 23.4704 255.793 23.3992 243.647C88.4283 273.691 201.5 325.738 302.317 371.312C318.397 378.632 334.17 385.701 349.321 392.53C363.64 398.909 377.403 405.058 390.487 410.872Z" fill="#88C67D"/>
<path d="M26.5672 279.903L355.702 460.598C329.964 470.051 302.733 475.249 275.173 475.97L38.4384 323.03C33.0519 309.05 29.0767 294.608 26.5672 279.903Z" fill="#88C67D"/>
<path d="M38.4393 323.029L275.174 475.97C272.791 476.043 270.419 476.074 268.036 476.074C218 476.082 169.165 461.414 128.112 434.049C87.0594 406.684 55.7623 367.937 38.4393 323.029Z" fill="#88C67D"/>
<path d="M38.4185 323.009H38.4404L275.175 475.97L275.328 476.075" stroke="#606060" stroke-width="12.1866" stroke-miterlimit="10"/>
<path d="M26.5672 279.903L355.702 460.587" stroke="#606060" stroke-width="12.1866" stroke-miterlimit="10"/>
<path d="M23.3992 243.647C88.4283 273.691 201.5 325.738 302.317 371.312C318.397 378.632 334.17 385.701 349.321 392.53C363.531 398.909 377.348 405.079 390.432 410.862C401.2 415.651 411.508 420.2 421.247 424.457" stroke="#606060" stroke-width="12.1866" stroke-miterlimit="10"/>
<path d="M390.486 410.863L485.225 349.843" stroke="#606060" stroke-width="12.1866" stroke-miterlimit="10"/>
<path d="M349.385 392.509L500.299 315.72L500.321 315.709" stroke="#606060" stroke-width="12.1866" stroke-miterlimit="10"/>
<path d="M302.316 371.312C369.641 343.83 450.487 310.575 508.378 285.958" stroke="#606060" stroke-width="12.1866" stroke-miterlimit="10"/>
<g style="mix-blend-mode:multiply">
<path d="M327.425 387.887L337.963 394.078L519.342 306.643L507.285 303.934L327.425 387.887Z" fill="#E0D9D1"/>
</g>
<g style="mix-blend-mode:multiply">
<path d="M373.39 405.32C381.151 400.729 500.092 332.965 500.092 332.965L502.278 337.012L382.036 409.649L373.39 405.32Z" fill="#E0D9D1"/>
</g>
<g style="mix-blend-mode:multiply">
<path d="M411.135 417.649L421.202 422.92L479.126 375.746L471.048 371.302L411.135 417.649Z" fill="#E0D9D1"/>
</g>
<g style="mix-blend-mode:multiply">
<path d="M327.382 490.161C320.327 492.472 313.127 494.358 305.826 495.808L10.9485 308.389C9.74603 302.502 8.05171 301.069 7.33026 295.056L327.382 490.161Z" fill="#E0D9D1"/>
</g>
<g style="mix-blend-mode:multiply">
<path d="M246.195 501.988C243.801 501.988 241.429 501.863 239.035 501.758C226.476 501.204 228.859 500.033 216.9 497.753L25.6824 356.776C22.3156 349.393 19.6484 346.423 17.0905 338.684L246.195 501.988Z" fill="#E0D9D1"/>
</g>
<g style="mix-blend-mode:multiply">
<path d="M394.628 456.99C386.561 462.627 383.697 463.265 374.952 467.95L5.71036 270.011C5.61198 265.337 5.71036 263.475 5.90712 258.727C96.8647 305.849 284.038 402.402 394.628 456.99Z" fill="#E0D9D1"/>
</g>
<path d="M38.4185 323.009H38.4404L275.175 475.97L275.328 476.075" stroke="#606060" stroke-width="12.1866" stroke-miterlimit="10"/>
<path d="M26.5672 279.903L355.702 460.587" stroke="#606060" stroke-width="12.1866" stroke-miterlimit="10"/>
<path d="M23.3992 243.647C88.4283 273.691 201.5 325.738 302.317 371.312C318.397 378.632 334.17 385.701 349.321 392.53C363.531 398.909 377.348 405.079 390.432 410.862C401.2 415.651 411.508 420.2 421.247 424.457" stroke="#606060" stroke-width="12.1866" stroke-miterlimit="10"/>
<path d="M390.486 410.863L485.225 349.843" stroke="#606060" stroke-width="12.1866" stroke-miterlimit="10"/>
<path d="M349.385 392.509L500.299 315.72L500.321 315.709" stroke="#606060" stroke-width="12.1866" stroke-miterlimit="10"/>
<path d="M302.316 371.312C369.641 343.83 450.487 310.575 508.378 285.958" stroke="#606060" stroke-width="12.1866" stroke-miterlimit="10"/>
</g>
<path fill-rule="evenodd" clip-rule="evenodd" d="M68.8337 132.201C111.022 60.831 188.754 12.9641 277.665 12.9641C411.547 12.9641 520.08 121.497 520.08 255.379C520.08 389.261 411.547 497.794 277.665 497.794C143.783 497.794 35.2506 389.261 35.2506 255.379C35.2506 251.486 35.3423 247.615 35.5238 243.767C31.3183 241.692 27.3811 239.175 23.7698 236.276C23.302 242.583 23.0639 248.953 23.0639 255.379C23.0639 395.991 137.053 509.98 277.665 509.98C418.278 509.98 532.267 395.991 532.267 255.379C532.267 114.766 418.278 0.777441 277.665 0.777441C171.287 0.777441 80.1459 66.019 42.0728 158.673C43.0446 156.937 44.099 155.244 45.2339 153.599C49.5213 147.382 54.8837 141.981 61.0689 137.649L68.8337 132.201Z" fill="white"/>
<path d="M31.4379 177.5L22.2024 179.936" stroke="white" stroke-width="14.2177" stroke-linecap="round" stroke-linejoin="round"/>
<path d="M55.4574 247.287C70.7395 247.269 85.5123 241.791 97.1109 231.84C108.709 221.89 116.37 208.122 118.712 193.02L121.214 176.784H104.739C89.4547 176.797 74.6786 182.274 63.0776 192.225C51.4766 202.176 43.8149 215.947 41.4752 231.051L40.8948 244.269L55.4574 247.287Z" fill="#FBFAF5"/>
<path d="M62.2966 222.751C74.7934 213.948 83.7312 200.967 87.4967 186.152C91.2622 171.337 89.6073 155.664 82.8306 141.962L75.5148 127.216L62.0388 136.671C55.8535 141.003 50.4911 146.404 46.2037 152.62C39.7146 162.029 35.8574 173.001 35.0313 184.401C34.2052 195.801 36.4401 207.214 41.5048 217.46L48.8206 232.197L62.2966 222.751Z" fill="#FBFAF5"/>
<path d="M56.9294 234.47C60.189 223.518 60.4637 211.894 57.7251 200.8C54.9865 189.707 49.334 179.546 41.3522 171.369C36.075 165.967 29.8746 161.552 23.0436 158.332L8.15403 151.293L3.44553 167.071C-0.914225 181.718 0.105832 197.44 6.32155 211.401C12.5373 225.361 23.5391 236.639 37.3409 243.2L40.8962 244.269L44.239 244.747L55.2223 247.135L56.9294 234.47Z" fill="#FBFAF5"/>
<path d="M55.4772 233.143C67.3795 233.123 78.8834 228.853 87.9169 221.103C96.9503 213.353 102.92 202.632 104.749 190.872C98.8824 190.867 93.0614 191.905 87.558 193.937C79.2083 197.026 71.8349 202.289 66.2 209.181C60.5651 216.074 56.8732 224.346 55.5059 233.143H55.4772Z" fill="#606060"/>
<path d="M54.3688 211.214C64.0961 204.354 71.0525 194.244 73.984 182.707C76.9154 171.17 75.629 158.966 70.3566 148.294C65.5464 151.67 61.3747 155.874 58.0362 160.71C52.9861 168.04 49.9838 176.585 49.3391 185.464C48.6944 194.342 50.4307 203.231 54.3688 211.214Z" fill="#606060"/>
<path d="M43.5766 230.459C32.8278 225.346 24.2592 216.561 19.4155 205.688C14.5718 194.815 13.7717 182.569 17.1594 171.159C27.9082 176.272 36.4769 185.057 41.3206 195.929C46.1642 206.802 46.9644 219.048 43.5766 230.459Z" fill="#606060"/>
</svg>
